<svg id="Layer_1" data-name="Layer 1" xmlns="http://www.w3.org/2000/svg" viewBox="0 0 100 80"><path d="M54.83,45.05c-.3-.1-.1-.5.5-.4l1.4.3a5.27,5.27,0,0,1,1.2.3c.4.2.4.4.4.4s-.2.1-.3.1-.1.1-.3.1a3.22,3.22,0,0,1-.8-.1,3.52,3.52,0,0,1-2.1-.7M74,51.85a4.43,4.43,0,0,0-1.5-.3q-.45,0-.3.3a14.47,14.47,0,0,0,7.6,4.3,17.5,17.5,0,0,1-6.2-4.2c-.1-.1-.1-.1,0-.1Zm1.8-3.7c-.6-.3-.8-.6.3-.2a14.84,14.84,0,0,1,4.4,2.7c.4.4.1.4-.6.2a5.39,5.39,0,0,1-1.3-.7A16.19,16.19,0,0,0,75.83,48.15Zm-4.2-14.8c5.4,1.7,12.9,6.8,17.1,11.7a19.63,19.63,0,0,0-6.8-7.3A34.46,34.46,0,0,0,71.63,33.35Zm-41.4,10.4c.1-.1.3-.2.3,0s.1.5,0,.6-.2.3-.3.1S30,44.15,30.23,43.75ZM5,58.85a14,14,0,0,0,4.4-1,35.49,35.49,0,0,0,9.2-5.7c-.9,0-1.2,0-1.5-.2a2.45,2.45,0,0,0-1.5-.4c-2,0-5.7,1.2-8.8,2.2a14.28,14.28,0,0,1,1.8-1.5,14.33,14.33,0,0,1,7.6-3.1,9.46,9.46,0,0,1,4.6,1.3c3.7-2.8,7.1-6.1,9.6-7.5a2.13,2.13,0,0,1,1.9-.1,4.1,4.1,0,0,1,2.1,1.8c-.3-2.1-.3-4.2-.4-6.2a4.37,4.37,0,0,1,.6-2.6c.1-.1.3-.1.3.1a23.73,23.73,0,0,0,1.7,4,2.16,2.16,0,0,1,1.3-2.2,94.76,94.76,0,0,1,18.6-7.5c.2-4.4.3-8.7.2-13.1q0-.15.3,0a29,29,0,0,1,5.1,6.1,23.17,23.17,0,0,1,2.8,5.7c.1.1.2.3.4.4,2.4.9,8.1,2.4,13.7,5a28.6,28.6,0,0,1,8.7,6.1,19.63,19.63,0,0,1,5.2,7.5,38.06,38.06,0,0,1,1.8,8.8,7.61,7.61,0,0,1-1.2,4.4,5.61,5.61,0,0,1-3.2,1.7,7.58,7.58,0,0,1-2.6-.1,32,32,0,0,1-10.9-3.7,55.27,55.27,0,0,1-8.2-5.5c-2.6-2.2-5.2-4.9-5.8-6.8a1.15,1.15,0,0,1,.1-1,2,2,0,0,1,1.4-.4,32.92,32.92,0,0,1,8.4.4,23.47,23.47,0,0,1,5.1,1.7,17.25,17.25,0,0,1,2.7,1.5c1.2.8,2.5,2.1,2.5,2.6a1,1,0,0,1-.7.9,4.64,4.64,0,0,1-2.1.4,26.79,26.79,0,0,1-4.5-.5,29.36,29.36,0,0,0,3.7,2.3,14.4,14.4,0,0,0,5.2,1.6c.4,0,.8.1.9-.1a3.13,3.13,0,0,0,.5-1,12.56,12.56,0,0,0-.6-3.8,12.68,12.68,0,0,0-3.9-6.5,30.78,30.78,0,0,0-9.6-5.6,29,29,0,0,0-9.8-1.9,25.85,25.85,0,0,0-8.1,1.3A124.21,124.21,0,0,0,41.83,43a2.93,2.93,0,0,1-1,.3,2.45,2.45,0,0,1-1.5-.1,6.79,6.79,0,0,1-1.9-1.1,13.89,13.89,0,0,0,2.2,2.9,4.19,4.19,0,0,0,2.2,1.3,3.21,3.21,0,0,0,1.4.1,69.55,69.55,0,0,0,7.3-2.1,17.18,17.18,0,0,1,3.8-.8,7.63,7.63,0,0,1,2.6.2,6,6,0,0,1,2.6,1.5,2.81,2.81,0,0,1,1,2.1v.5a.82.82,0,0,1-.6.4H59a7.17,7.17,0,0,1-1.2,4.2,8.17,8.17,0,0,1-4,3.3,4,4,0,0,1-1.5.3c-.5,0-.6-.1-.5-.3a6.5,6.5,0,0,0,1.1-3.3c0-.6,0-1.1-.4-1.3a23.19,23.19,0,0,1-7.9,4.4,5.66,5.66,0,0,1-1.8.3c-.2,0-.3-.1-.1-.2a13.5,13.5,0,0,0,4-4.5c-5.4,1.4-9.4,2.6-14.2,3.2a55.4,55.4,0,0,1-6.7.6c-.4,0-.5-.1-.2-.3,2.8-1.4,5.2-3.1,8-4.5a1,1,0,0,0,.6-1v-2.3a1.78,1.78,0,0,1-.8,1.1,80.66,80.66,0,0,1-12.1,7.7,44.67,44.67,0,0,1-9,4.1,17.84,17.84,0,0,1-4.4.6,4.65,4.65,0,0,1-2.8-.8A.66.66,0,0,0,5,58.85Z" fill="#003f5c" fill-rule="evenodd"/><path d="M43.93,46.05c.8-.2,1.7-.3,6.9-1.9a17.18,17.18,0,0,1,3.8-.8,7.63,7.63,0,0,1,2.6.2,6,6,0,0,1,2.6,1.5,2.81,2.81,0,0,1,1,2.1v.5q0,.15-.3.3c.1-.1-.2-.8-.4-1a3.43,3.43,0,0,0-.9-1.8,5.07,5.07,0,0,0-2.2-1.5,6.35,6.35,0,0,0-2.4-.2,12.79,12.79,0,0,0-3.5.7c-1.7.5-3.7,1.2-5.5,1.7-.4.1-.6.3-.3.2.8-.1.6.1.1.2a8.33,8.33,0,0,1-1.5.4c-.9.2-2.2.7-3.5,1.1a19.78,19.78,0,0,1,3.1-1.2,8.38,8.38,0,0,1-1,.2c1.1-.4,1.2-.5,1.4-.7m3.1,5c-5.4,1.4-9.4,2.6-14.2,3.2-2.1.3-3.9.5-5.2.6h-.2c7.3-.7,12.6-2.9,19.2-4.7a3.92,3.92,0,0,0,.9-.4A1.79,1.79,0,0,1,47,51.05Zm28.4,1.1a21.65,21.65,0,0,1-6-2.7c-.4-.3-.5-.6.3-.6a10.46,10.46,0,0,1,3.6.5,5.29,5.29,0,0,1,3.2,2.1,28.14,28.14,0,0,1,5.1.1c.6.1.8.3.4.6a6.13,6.13,0,0,1-3.3.2c-1.2-.1-1.8-.2-2.4-.3a1.93,1.93,0,0,1-1.1-.4,5.9,5.9,0,0,0-.8-.4h-.6c-.3,0-.3.1-.2.2C74.43,51.75,75.43,52.15,75.43,52.15Zm-49.3,2.7a.58.58,0,0,1-.4-.1c5.4-1.4,9.1-2.8,14.3-4.4,2.3-.8,5.2-1.6,7.2-2.4a20.46,20.46,0,0,1,6.7-1.5,10.32,10.32,0,0,1,3,.4,6.71,6.71,0,0,1,2.3.3,2.34,2.34,0,0,1,1,.5c.3.3.3.3.2.4s-.3,0-1,.1a13.14,13.14,0,0,1-2.6-.6,3.35,3.35,0,0,0-1,0,.46.46,0,0,1,.5.3c.1.1,0,.1-.1.1-3.1-.2-6.9,1.1-9,1.9l-.2-.3c-3.9,1.3-7.9,2.6-12,3.6A63.66,63.66,0,0,1,26.13,54.85Zm56.5-9.1-.9-.9a30.78,30.78,0,0,0-9.6-5.6,29,29,0,0,0-9.8-1.9,25.85,25.85,0,0,0-8.1,1.3A124.21,124.21,0,0,0,42,43a2.93,2.93,0,0,1-1,.3,2.45,2.45,0,0,1-1.5-.1h-.1a2.66,2.66,0,0,0,1.2-.3c3.3-1.3,6.6-2.6,9.8-3.6a56.12,56.12,0,0,1,8.3-2.1,19.62,19.62,0,0,1,4.8-.1,32.3,32.3,0,0,1,14.9,5,19.45,19.45,0,0,1,4.2,3.7Zm-45.9-5.9a2.45,2.45,0,0,0,.4,1.2,76,76,0,0,1,7.3-3.1c5.5-2.1,10.6-3.7,15.1-3.7a33.48,33.48,0,0,1,10.4,2c4.2,1.4,9.1,3.7,12.5,7.2a14.76,14.76,0,0,1,3.7,5.7,12.09,12.09,0,0,1,.4,4.4,16.09,16.09,0,0,0-6.3-10.4A33.05,33.05,0,0,0,69.93,38a39.17,39.17,0,0,0-6.8-1.3c-3-.4-6.7.3-9.9,1.2-6.3,1.8-8.6,3.1-13,4.7a2.54,2.54,0,0,1-1.7.1C37.33,41.85,36.53,40.75,36.73,39.85Zm-18.1,12.3c-.9,0-1.2,0-1.5-.2a2.45,2.45,0,0,0-1.5-.4c-2,0-5.7,1.2-8.8,2.2a15.22,15.22,0,0,1,7.6-3.2c1.3-.1,2.2.3,2.5,1a3.33,3.33,0,0,1,3-1,3.79,3.79,0,0,1-2.6,1.2c.1.1.3.1.5.2a4.87,4.87,0,0,0,1.2-.1Zm-8.9,8c-.5,0-1,.1-1.4.1a4.65,4.65,0,0,1-2.8-.8l-.2-.2a5.67,5.67,0,0,0,2.9,0c1.9-.4,4.7-1.6,9.6-4.8,5.2-3.4,7.8-5.8,11.6-8.2a1,1,0,0,1,.9-.1c.4.1.6.4,1.3.5.5.1.7.3.6.4-.1.3,0,.4,0,.6s-.2.4-.4.6q-3.9,2.7-7.8,5.1a62.7,62.7,0,0,1-10.1,5.3A25.42,25.42,0,0,1,9.43,60C8.73,60.05,8.83,60.05,9.73,60.15Zm.4-8.9a11.56,11.56,0,0,1,6-2,10.58,10.58,0,0,1,4.4,1.1h0c.3.1.1.3-.3.5a1.54,1.54,0,0,0-.4-.6c-.3-.1-.4,0-.6-.1a6.11,6.11,0,0,0-3-.8A13.13,13.13,0,0,0,10.13,51.25ZM5,58.85a14,14,0,0,0,4.4-1,34.31,34.31,0,0,0,8.5-5.1h0C13.63,56.35,8.83,59.15,5,58.85ZM56.53,48a1.87,1.87,0,0,1,1.8,0,2.38,2.38,0,0,0-1.2-.3A.86.86,0,0,0,56.53,48Zm-1,.9a8.19,8.19,0,0,1,2.8-.6,15.68,15.68,0,0,0-2.5.4l.6-.6c-3.4,2.9-7.1,5.6-10.1,6.7a15.72,15.72,0,0,1-3.3.8v.1h.1a5.66,5.66,0,0,0,1.8-.3,25,25,0,0,0,7.9-4.4l.1.1h0c.3.3.3.7.3,1.3a5.92,5.92,0,0,1-1.1,3.3l-.1.1h0a4,4,0,0,0,1.5-.3,8.74,8.74,0,0,0,4-3.3h0v-.1h0v.1h0v-.1h0V52h0v-.1h0v-.1h0v-.1h0v-.1h0v.1h0v-.1h0v-.1h0v-.1h0v-.1h0v-.1c0-.3.1-.6.1-.9-.1-.1-.1-.1-.2,0s-.2.1-.4.1-.3,0-.4,0a16.47,16.47,0,0,0-3.2.8h0a20.91,20.91,0,0,1,2.1-2.3Zm-36.4,1.5c.1,0,.3-.1.3,0h-.3a.31.31,0,0,1-.2.1C18.83,50.45,19,50.45,19.13,50.35Zm2.2-.3c3.4-2.6,6.4-5.5,8.8-6.9-2,1.5-3.9,3.2-5.9,4.9-1.5,1.2-3.3,2.6-5,4a19.36,19.36,0,0,0,2.1-2Zm35.8-32.7c3.6,3.4,7,9.7,7.2,11.7,0,.2.3.2.5.1l.1.1c.3.2.8.3,1.2.5a4.4,4.4,0,0,0-.9-.1.25.25,0,0,0-.1.4,26.8,26.8,0,0,0-4.9-.2c-1.4.1-2.7.3-4,.5a91.66,91.66,0,0,0-18.3,7.5,2.35,2.35,0,0,0-1.3,1.9,3.73,3.73,0,0,1,2-1.9,107.09,107.09,0,0,1,9.9-4.4,49.09,49.09,0,0,1,11.8-3.3,19,19,0,0,1,7.3.8,56.35,56.35,0,0,1,14.5,5.9,26.91,26.91,0,0,1,8.7,8.8c1.5,2.6,2.5,6.7,3.1,11.5a4.8,4.8,0,0,0-1.9-.9c-1.6-.5-3.5-2-3.1,1.2.1,1.3-2.6,2.3-4.5,2a20.15,20.15,0,0,1-3.9-1A31.32,31.32,0,0,1,69.13,52a26.12,26.12,0,0,0-3-2.4,8.48,8.48,0,0,1-2.2-1.8,30.32,30.32,0,0,0,7.9,7.6,40.11,40.11,0,0,0,9.3,4.9,23.73,23.73,0,0,0,3.4,1c5.5,1.2,8.3.4,8.3.4a3.88,3.88,0,0,0,1.1-.6,7.62,7.62,0,0,0,1-4.3,43.8,43.8,0,0,0-2-8.8,19.63,19.63,0,0,0-5.2-7.5,31.9,31.9,0,0,0-8.7-6.1,137.1,137.1,0,0,0-13.7-5c-.1-.1-.3-.1-.3-.2A28.61,28.61,0,0,0,57.13,17.35Zm-26.9,25.7c.1-.1.1-.1.2-.1a2.13,2.13,0,0,1,1.9-.1,4.1,4.1,0,0,1,2.1,1.8l.2,2.1a1.78,1.78,0,0,1-.8,1.1,80.66,80.66,0,0,1-12.1,7.7,44.67,44.67,0,0,1-9,4.1c-.3.1-.4.1-.7.2,3.5-1,8.7-3.9,15.9-8.6,1.7-1.1,3.2-2.1,4.5-3.1a.45.45,0,0,0,.2-.6,1.7,1.7,0,0,1,0-1c0-.3.1-.6.1-1a2,2,0,0,0-.2-.9,2.51,2.51,0,0,0-1.2-1.4A1.09,1.09,0,0,0,30.23,43.05Z" fill="#88d0c7" fill-rule="evenodd"/></svg>